<svg id="visual" viewBox="0 0 900 600" width="900" height="600" xmlns="http://www.w3.org/2000/svg" xmlns:xlink="http://www.w3.org/1999/xlink" version="1.1"><rect x="0" y="0" width="900" height="600" fill="#002233"></rect><path d="M0 24L12.5 22.8C25 21.7 50 19.3 75 22.3C100 25.3 125 33.7 150 37.8C175 42 200 42 225 41.7C250 41.3 275 40.7 300 36.2C325 31.7 350 23.3 375 20.7C400 18 425 21 450 23.3C475 25.7 500 27.3 525 25.7C550 24 575 19 600 20.2C625 21.3 650 28.7 675 33.2C700 37.7 725 39.3 750 40.5C775 41.7 800 42.3 825 40C850 37.7 875 32.3 887.5 29.7L900 27L900 0L887.5 0C875 0 850 0 825 0C800 0 775 0 750 0C725 0 700 0 675 0C650 0 625 0 600 0C575 0 550 0 525 0C500 0 475 0 450 0C425 0 400 0 375 0C350 0 325 0 300 0C275 0 250 0 225 0C200 0 175 0 150 0C125 0 100 0 75 0C50 0 25 0 12.5 0L0 0Z" fill="#0066FF" stroke-linecap="round" stroke-linejoin="miter"></path></svg>