<?xml version="1.0" standalone="no"?><svg xmlns="http://www.w3.org/2000/svg" viewBox="0 0 1440 320"><path fill="#0099ff" fill-opacity="1" d="M0,160L6.2,170.7C12.3,181,25,203,37,176C49.2,149,62,75,74,64C86.2,53,98,107,111,138.7C123.1,171,135,181,148,181.3C160,181,172,171,185,176C196.9,181,209,203,222,197.3C233.8,192,246,160,258,160C270.8,160,283,192,295,170.7C307.7,149,320,75,332,64C344.6,53,357,107,369,122.7C381.5,139,394,117,406,133.3C418.5,149,431,203,443,229.3C455.4,256,468,256,480,218.7C492.3,181,505,107,517,69.3C529.2,32,542,32,554,26.7C566.2,21,578,11,591,37.3C603.1,64,615,128,628,133.3C640,139,652,85,665,101.3C676.9,117,689,203,702,229.3C713.8,256,726,224,738,224C750.8,224,763,256,775,272C787.7,288,800,288,812,261.3C824.6,235,837,181,849,144C861.5,107,874,85,886,96C898.5,107,911,149,923,144C935.4,139,948,85,960,64C972.3,43,985,53,997,48C1009.2,43,1022,21,1034,64C1046.2,107,1058,213,1071,234.7C1083.1,256,1095,192,1108,154.7C1120,117,1132,107,1145,128C1156.9,149,1169,203,1182,224C1193.8,245,1206,235,1218,229.3C1230.8,224,1243,224,1255,202.7C1267.7,181,1280,139,1292,154.7C1304.6,171,1317,245,1329,250.7C1341.5,256,1354,192,1366,181.3C1378.5,171,1391,213,1403,213.3C1415.4,213,1428,171,1434,149.3L1440,128L1440,0L1433.8,0C1427.7,0,1415,0,1403,0C1390.8,0,1378,0,1366,0C1353.8,0,1342,0,1329,0C1316.9,0,1305,0,1292,0C1280,0,1268,0,1255,0C1243.1,0,1231,0,1218,0C1206.2,0,1194,0,1182,0C1169.2,0,1157,0,1145,0C1132.3,0,1120,0,1108,0C1095.4,0,1083,0,1071,0C1058.5,0,1046,0,1034,0C1021.5,0,1009,0,997,0C984.6,0,972,0,960,0C947.7,0,935,0,923,0C910.8,0,898,0,886,0C873.8,0,862,0,849,0C836.9,0,825,0,812,0C800,0,788,0,775,0C763.1,0,751,0,738,0C726.2,0,714,0,702,0C689.2,0,677,0,665,0C652.3,0,640,0,628,0C615.4,0,603,0,591,0C578.5,0,566,0,554,0C541.5,0,529,0,517,0C504.6,0,492,0,480,0C467.7,0,455,0,443,0C430.8,0,418,0,406,0C393.8,0,382,0,369,0C356.9,0,345,0,332,0C320,0,308,0,295,0C283.1,0,271,0,258,0C246.2,0,234,0,222,0C209.2,0,197,0,185,0C172.3,0,160,0,148,0C135.4,0,123,0,111,0C98.5,0,86,0,74,0C61.5,0,49,0,37,0C24.6,0,12,0,6,0L0,0Z"></path></svg>